<svg version="1.1" xmlns="http://www.w3.org/2000/svg" viewBox="0 0 1029.2284507051027 1224.55292551379" width="1029.2284507051027" height="1224.55292551379">
  <!-- svg-source:excalidraw -->
  
  <defs>
    <style class="style-fonts">
      @font-face {
        font-family: "Virgil";
        src: url("https://excalidraw.com/Virgil.woff2");
      }
      @font-face {
        font-family: "Cascadia";
        src: url("https://excalidraw.com/Cascadia.woff2");
      }
      @font-face {
        font-family: "Assistant";
        src: url("https://excalidraw.com/Assistant-Regular.woff2");
      }
    </style>
    
  </defs>
  <rect x="0" y="0" width="1029.2284507051027" height="1224.55292551379" fill="#ffffff"></rect><g stroke-linecap="round" transform="translate(145.30452940432878 196.91201935152708) rotate(0 57.20510287336725 56.407939732541934)"><path d="M28.2 0 C48.25 -0.24, 70.18 -1.08, 86.21 0 M28.2 0 C42.07 -0.68, 54.2 0.01, 86.21 0 M86.21 0 C106.12 -1.28, 113.72 7.52, 114.41 28.2 M86.21 0 C103.91 -2.07, 112.25 9.38, 114.41 28.2 M114.41 28.2 C112.7 48.86, 113.32 71.22, 114.41 84.61 M114.41 28.2 C114.48 49.98, 115.08 71.19, 114.41 84.61 M114.41 84.61 C114.48 101.5, 105.86 110.88, 86.21 112.82 M114.41 84.61 C115.11 105.56, 103.2 114.09, 86.21 112.82 M86.21 112.82 C71.08 112.57, 54.65 110.75, 28.2 112.82 M86.21 112.82 C71.72 114.13, 57.16 112.87, 28.2 112.82 M28.2 112.82 C7.53 111.64, -0.3 104.67, 0 84.61 M28.2 112.82 C11.34 111.19, 0.04 101.7, 0 84.61 M0 84.61 C-0.44 63.02, -0.75 41.52, 0 28.2 M0 84.61 C0.04 71.24, -0.37 57.97, 0 28.2 M0 28.2 C0.05 9.56, 8.09 -0.53, 28.2 0 M0 28.2 C0.45 7.72, 8.85 0.63, 28.2 0" stroke="#1e1e1e" stroke-width="2" fill="none"></path></g><g transform="translate(176.493648696153 243.319959084069) rotate(0 26.01598358154297 10)"><text x="26.01598358154297" y="14.016" font-family="Virgil, Segoe UI Emoji" font-size="16px" fill="#1e1e1e" text-anchor="middle" style="white-space: pre;" direction="ltr" dominant-baseline="alphabetic">Cliente</text></g><g stroke-linecap="round" transform="translate(644.3705044667222 202.43872379388716) rotate(0 57.20510287336725 56.40793973254196)"><path d="M28.2 0 C43.24 -0.97, 61.54 2.16, 86.21 0 M28.2 0 C42.55 -0.68, 55.44 -0.98, 86.21 0 M86.21 0 C104.06 -1.8, 112.53 9.38, 114.41 28.2 M86.21 0 C107.28 0.66, 114.06 7.24, 114.41 28.2 M114.41 28.2 C115.52 39.87, 115.21 51.93, 114.41 84.61 M114.41 28.2 C114.84 48.28, 115.23 69.3, 114.41 84.61 M114.41 84.61 C115.02 105.28, 103.43 113.93, 86.21 112.82 M114.41 84.61 C114.08 103.24, 103 114.48, 86.21 112.82 M86.21 112.82 C67.23 112.43, 51.15 113.41, 28.2 112.82 M86.21 112.82 C62.31 112.05, 40.14 113.27, 28.2 112.82 M28.2 112.82 C11.09 111.4, 0.03 101.92, 0 84.61 M28.2 112.82 C11.35 112.15, 0.77 102.72, 0 84.61 M0 84.61 C-1.06 68.23, 1.11 50.77, 0 28.2 M0 84.61 C0.1 68.73, -0.58 52.41, 0 28.2 M0 28.2 C0.39 7.94, 8.92 0.55, 28.2 0 M0 28.2 C0.15 9.05, 7.11 0.18, 28.2 0" stroke="#1e1e1e" stroke-width="2" fill="none"></path></g><g transform="translate(659.5356293127456 248.8466635264291) rotate(0 42.03997802734381 10)"><text x="42.03997802734375" y="14.016" font-family="Virgil, Segoe UI Emoji" font-size="16px" fill="#1e1e1e" text-anchor="middle" style="white-space: pre;" direction="ltr" dominant-baseline="alphabetic">solicitação</text></g><g transform="translate(271.7393498446973 244.12696427375965) rotate(0 15.751991271972656 10)"><text x="0" y="14.016" font-family="Virgil, Segoe UI Emoji" font-size="16px" fill="#1e1e1e" text-anchor="start" style="white-space: pre;" direction="ltr" dominant-baseline="alphabetic">(0,1)</text></g><g transform="translate(597.8790958273444 251.01534137338496) rotate(0 15.399986267089844 10)"><text x="0" y="14.016" font-family="Virgil, Segoe UI Emoji" font-size="16px" fill="#1e1e1e" text-anchor="start" style="white-space: pre;" direction="ltr" dominant-baseline="alphabetic">(1,N)</text></g><g transform="translate(158.27063369894387 331.7247829427581) rotate(0 42.35999298095703 10)"><text x="0" y="14.016" font-family="Virgil, Segoe UI Emoji" font-size="16px" fill="#e03131" text-anchor="start" style="white-space: pre;" direction="ltr" dominant-baseline="alphabetic">oneToMany</text></g><g transform="translate(663.6908964798095 329.98958526328784) rotate(0 41.70398712158209 10)"><text x="0" y="14.016" font-family="Virgil, Segoe UI Emoji" font-size="16px" fill="#e03131" text-anchor="start" style="white-space: pre;" direction="ltr" dominant-baseline="alphabetic">mqnyToOne</text></g><g transform="translate(63.26509180180591 822.2328192767739) rotate(0 126.56791687011719 10)"><text x="0" y="14.016" font-family="Virgil, Segoe UI Emoji" font-size="16px" fill="#1971c2" text-anchor="start" style="white-space: pre;" direction="ltr" dominant-baseline="alphabetic">Cardinalidade mínima de máxima </text></g><g transform="translate(142.21836208634244 873.0373950037742) rotate(0 38.04759979248047 24.71181133823734)"><text x="0" y="34.636074771673535" font-family="Virgil, Segoe UI Emoji" font-size="39.538898141179835px" fill="#e03131" text-anchor="start" style="white-space: pre;" direction="ltr" dominant-baseline="alphabetic">(1,N)</text></g><g stroke-linecap="round" transform="translate(77.68263024753207 998.6760827483431) rotate(0 50.118154108380764 32.26782663470203)"><path d="M16.13 0 C35.42 1.32, 54.91 -0.45, 84.1 0 M16.13 0 C34.02 -0.04, 51.98 0.34, 84.1 0 M84.1 0 C96.26 -1.05, 101.05 4.5, 100.24 16.13 M84.1 0 C96.84 2.07, 99.94 5.31, 100.24 16.13 M100.24 16.13 C99.79 26.77, 101.96 34.91, 100.24 48.4 M100.24 16.13 C100.26 23.79, 99.75 31.99, 100.24 48.4 M100.24 48.4 C101.77 59.03, 96.1 65, 84.1 64.54 M100.24 48.4 C100.47 61.13, 96.08 63.5, 84.1 64.54 M84.1 64.54 C70.41 65.1, 55.73 64.57, 16.13 64.54 M84.1 64.54 C61.03 65.4, 36.68 65.75, 16.13 64.54 M16.13 64.54 C5.13 66, 0.42 60.4, 0 48.4 M16.13 64.54 C6.35 66.36, -2.1 59.26, 0 48.4 M0 48.4 C-0.52 35.31, -0.29 24.18, 0 16.13 M0 48.4 C-0.46 40.29, -0.17 32.99, 0 16.13 M0 16.13 C-1.35 4.36, 3.8 -1.93, 16.13 0 M0 16.13 C1.21 6.03, 4.92 -0.29, 16.13 0" stroke="#1971c2" stroke-width="2" fill="none"></path></g><g transform="translate(84.7528183524949 1010.9439093830451) rotate(0 43.04796600341797 20)"><text x="43.04796600341797" y="14.016" font-family="Virgil, Segoe UI Emoji" font-size="16px" fill="#1971c2" text-anchor="middle" style="white-space: pre;" direction="ltr" dominant-baseline="alphabetic">Cardinalida</text><text x="43.04796600341797" y="34.016" font-family="Virgil, Segoe UI Emoji" font-size="16px" fill="#1971c2" text-anchor="middle" style="white-space: pre;" direction="ltr" dominant-baseline="alphabetic">de mínima</text></g><g stroke-linecap="round"><g transform="translate(157.4721772829376 923.4610176802489) rotate(0 -16.541893015693745 35.54786173625587)"><path d="M-0.31 -0.25 C-5.93 11.4, -28.53 58.67, -34.13 70.72 M1.72 -1.43 C-3.5 10.32, -26.43 60.13, -31.97 72.05" stroke="#e03131" stroke-width="2" fill="none"></path></g><g transform="translate(157.4721772829376 923.4610176802489) rotate(0 -16.541893015693745 35.54786173625587)"><path d="M-29.88 47.14 C-30.68 51.96, -31.44 58.85, -31.97 72.05 M-29.88 47.14 C-30.14 56.38, -31.08 65.55, -31.97 72.05" stroke="#e03131" stroke-width="2" fill="none"></path></g><g transform="translate(157.4721772829376 923.4610176802489) rotate(0 -16.541893015693745 35.54786173625587)"><path d="M-14.36 54.31 C-19.3 57.2, -24.17 62.2, -31.97 72.05 M-14.36 54.31 C-20.49 60.82, -27.27 67.3, -31.97 72.05" stroke="#e03131" stroke-width="2" fill="none"></path></g></g><mask></mask><g stroke-linecap="round" transform="translate(279.5283256265131 998.6760827483431) rotate(0 50.11815410838079 32.26782663470203)"><path d="M16.13 0 C38.07 2.01, 59.49 1.79, 84.1 0 M16.13 0 C34.99 0.73, 53.48 -0.34, 84.1 0 M84.1 0 C96.08 0.17, 99.58 3.61, 100.24 16.13 M84.1 0 C92.9 -1.63, 99.61 7.57, 100.24 16.13 M100.24 16.13 C98.3 29.26, 99.32 40.35, 100.24 48.4 M100.24 16.13 C100.27 24.63, 101.06 32.9, 100.24 48.4 M100.24 48.4 C102.11 59.06, 93.98 63.18, 84.1 64.54 M100.24 48.4 C100.79 59.95, 96.17 65.52, 84.1 64.54 M84.1 64.54 C63.65 62.08, 44.08 62.81, 16.13 64.54 M84.1 64.54 C63.04 64.3, 42.23 64.24, 16.13 64.54 M16.13 64.54 C5.68 64.09, -1.19 57.29, 0 48.4 M16.13 64.54 C3.37 63.97, -0.98 56.88, 0 48.4 M0 48.4 C-1.24 42.79, 1.74 34.37, 0 16.13 M0 48.4 C-0.1 40.73, -0.32 31.11, 0 16.13 M0 16.13 C-0.78 3.5, 5.12 -0.23, 16.13 0 M0 16.13 C0.81 5.34, 7.15 0.04, 16.13 0" stroke="#1971c2" stroke-width="2" fill="none"></path></g><g transform="translate(286.59851373147586 1010.9439093830451) rotate(0 43.04796600341797 20)"><text x="43.04796600341797" y="14.016" font-family="Virgil, Segoe UI Emoji" font-size="16px" fill="#1971c2" text-anchor="middle" style="white-space: pre;" direction="ltr" dominant-baseline="alphabetic">Cardinalida</text><text x="43.04796600341797" y="34.016" font-family="Virgil, Segoe UI Emoji" font-size="16px" fill="#1971c2" text-anchor="middle" style="white-space: pre;" direction="ltr" dominant-baseline="alphabetic">de máxima</text></g><g stroke-linecap="round"><g transform="translate(211.97156071971034 923.4610176802489) rotate(0 38.584224237009835 35.20459199989136)"><path d="M1.19 -0.29 C13.99 11.53, 64.65 58.9, 77.26 70.59 M0.36 -1.5 C12.97 10.57, 63.77 60.16, 76.36 72.22" stroke="#2f9e44" stroke-width="2" fill="none"></path></g><g transform="translate(211.97156071971034 923.4610176802489) rotate(0 38.584224237009835 35.20459199989136)"><path d="M53.53 62.02 C60.76 65.41, 69.28 68.19, 76.36 72.22 M53.53 62.02 C60.13 65.68, 65.73 66.88, 76.36 72.22" stroke="#2f9e44" stroke-width="2" fill="none"></path></g><g transform="translate(211.97156071971034 923.4610176802489) rotate(0 38.584224237009835 35.20459199989136)"><path d="M65.43 49.73 C68.58 57.4, 73.08 64.36, 76.36 72.22 M65.43 49.73 C68.92 56.42, 71.52 60.71, 76.36 72.22" stroke="#2f9e44" stroke-width="2" fill="none"></path></g></g><mask></mask><g stroke-linecap="round" transform="translate(53.65338204478684 1103.7181934640098) rotate(0 69.684817168981 35.70060256775332)"><path d="M17.85 0 C56.82 -1.48, 95.54 1.48, 121.52 0 M17.85 0 C53.72 -1.07, 88.4 -0.84, 121.52 0 M121.52 0 C132.91 1.07, 139.77 4.07, 139.37 17.85 M121.52 0 C133.39 1.76, 139.72 6.5, 139.37 17.85 M139.37 17.85 C140.51 29.62, 139.25 46.38, 139.37 53.55 M139.37 17.85 C138.85 28.59, 138.82 39.05, 139.37 53.55 M139.37 53.55 C139.89 65, 132.87 70.71, 121.52 71.4 M139.37 53.55 C140.13 63.75, 135.4 73.5, 121.52 71.4 M121.52 71.4 C95.43 72.77, 67.44 71.44, 17.85 71.4 M121.52 71.4 C92.96 71.1, 65.47 72.26, 17.85 71.4 M17.85 71.4 C5.33 72.81, 0.84 63.59, 0 53.55 M17.85 71.4 C3.95 69.49, -1.98 67.15, 0 53.55 M0 53.55 C-0.78 42.77, 0.36 28.87, 0 17.85 M0 53.55 C-0.35 41.03, -1.14 28.22, 0 17.85 M0 17.85 C1.67 7.87, 6.89 0.79, 17.85 0 M0 17.85 C-0.99 8.04, 5.35 0.93, 17.85 0" stroke="#2f9e44" stroke-width="2" fill="none"></path></g><g transform="translate(62.97024114492018 1119.4187960317633) rotate(0 60.367958068847656 20)"><text x="60.367958068847656" y="14.016" font-family="Virgil, Segoe UI Emoji" font-size="16px" fill="#2f9e44" text-anchor="middle" style="white-space: pre;" direction="ltr" dominant-baseline="alphabetic">Relação de </text><text x="60.367958068847656" y="34.016" font-family="Virgil, Segoe UI Emoji" font-size="16px" fill="#2f9e44" text-anchor="middle" style="white-space: pre;" direction="ltr" dominant-baseline="alphabetic">obrigatoriedade</text></g><g stroke-linecap="round"><g transform="translate(125.30409968020501 1064.2117360177472) rotate(0 -1.4298713991041438 18.380123587871253)"><path d="M0.01 0.3 C-0.51 6.35, -2.01 30.58, -2.54 36.73 M-0.66 -0.02 C-1.26 6.09, -2.3 31.35, -2.8 37.42" stroke="#2f9e44" stroke-width="2" fill="none"></path></g><g transform="translate(125.30409968020501 1064.2117360177472) rotate(0 -1.4298713991041438 18.380123587871253)"><path d="M-8.07 19.75 C-5.41 27.32, -3.86 33.31, -2.8 37.42 M-8.07 19.75 C-5.85 26.82, -4.09 33.78, -2.8 37.42" stroke="#2f9e44" stroke-width="2" fill="none"></path></g><g transform="translate(125.30409968020501 1064.2117360177472) rotate(0 -1.4298713991041438 18.380123587871253)"><path d="M4.52 20.5 C2.17 27.77, -1.28 33.46, -2.8 37.42 M4.52 20.5 C1.86 27.33, -1.27 34, -2.8 37.42" stroke="#2f9e44" stroke-width="2" fill="none"></path></g></g><mask></mask><g stroke-linecap="round" transform="translate(265.79732665351565 1113.3299032210289) rotate(0 69.684817168981 35.70060256775332)"><path d="M17.85 0 C45.25 -0.12, 68.72 1.93, 121.52 0 M17.85 0 C58.06 -0.55, 100 -0.55, 121.52 0 M121.52 0 C135.2 0.21, 140.78 4.14, 139.37 17.85 M121.52 0 C132.95 1.14, 139.11 7.46, 139.37 17.85 M139.37 17.85 C138.7 30.29, 139.28 39.31, 139.37 53.55 M139.37 17.85 C139.03 27.44, 138.93 37.21, 139.37 53.55 M139.37 53.55 C137.59 66.4, 132.41 71.87, 121.52 71.4 M139.37 53.55 C137.89 64.02, 132.35 72.76, 121.52 71.4 M121.52 71.4 C85.72 69.64, 49.79 72.91, 17.85 71.4 M121.52 71.4 C98.51 72.78, 77.26 71.83, 17.85 71.4 M17.85 71.4 C5.87 71.87, -1.74 67.19, 0 53.55 M17.85 71.4 C6.28 71.82, -0.61 67.56, 0 53.55 M0 53.55 C-1.35 44.81, -0.64 33.54, 0 17.85 M0 53.55 C-0.74 39.48, -0.29 26.98, 0 17.85 M0 17.85 C-0.56 5.63, 5.28 1.06, 17.85 0 M0 17.85 C-1 4.61, 5.6 0.05, 17.85 0" stroke="#2f9e44" stroke-width="2" fill="none"></path></g><g transform="translate(284.8101772697623 1129.0305057887822) rotate(0 50.671966552734375 20)"><text x="50.671966552734375" y="14.016" font-family="Virgil, Segoe UI Emoji" font-size="16px" fill="#2f9e44" text-anchor="middle" style="white-space: pre;" direction="ltr" dominant-baseline="alphabetic">Relação de </text><text x="50.671966552734375" y="34.016" font-family="Virgil, Segoe UI Emoji" font-size="16px" fill="#2f9e44" text-anchor="middle" style="white-space: pre;" direction="ltr" dominant-baseline="alphabetic">classificação</text></g><g stroke-linecap="round"><g transform="translate(325.7872388833104 1064.2117360177472) rotate(0 2.6161795408721673 23.87255722381292)"><path d="M0.34 -0.03 C1.17 7.89, 4.39 39.53, 5.14 47.43 M-0.15 -0.53 C0.59 7.48, 3.64 39.92, 4.66 47.97" stroke="#2f9e44" stroke-width="2" fill="none"></path></g><g transform="translate(325.7872388833104 1064.2117360177472) rotate(0 2.6161795408721673 23.87255722381292)"><path d="M-5.92 26.41 C-2.52 33.32, 0.46 39.88, 4.66 47.97 M-5.92 26.41 C-3.95 31.23, -0.96 35.68, 4.66 47.97" stroke="#2f9e44" stroke-width="2" fill="none"></path></g><g transform="translate(325.7872388833104 1064.2117360177472) rotate(0 2.6161795408721673 23.87255722381292)"><path d="M10.41 24.65 C8.42 32.19, 6.01 39.33, 4.66 47.97 M10.41 24.65 C8.7 29.86, 8.01 34.7, 4.66 47.97" stroke="#2f9e44" stroke-width="2" fill="none"></path></g></g><mask></mask><g stroke-linecap="round" transform="translate(407.0744549578321 219.54989952583696) rotate(0 54.92399589198914 34.32749743249323)"><path d="M68.75 8.75 C74.05 11.65, 83.09 20.14, 96.1 26.25 M68.75 8.75 C76.8 14.13, 85.73 21.24, 96.1 26.25 M96.1 26.25 C109.75 36.15, 110.04 36.46, 96.1 43.75 M96.1 26.25 C111.46 37.02, 109.92 32.8, 96.1 43.75 M96.1 43.75 C88.44 47.79, 78.31 54.62, 68.75 59.9 M96.1 43.75 C88.09 49.47, 79.19 52.98, 68.75 59.9 M68.75 59.9 C55.07 69.89, 56.05 70.57, 41.25 59.9 M68.75 59.9 C57.25 67.96, 52.85 67.3, 41.25 59.9 M41.25 59.9 C31.9 55.56, 23.98 52.62, 13.75 43.75 M41.25 59.9 C33.79 54.98, 26.42 50.4, 13.75 43.75 M13.75 43.75 C0.81 35.85, 0.54 34.66, 13.75 26.25 M13.75 43.75 C-0.31 34.46, 0.06 35.19, 13.75 26.25 M13.75 26.25 C18.79 21.61, 27.24 18.12, 41.25 8.75 M13.75 26.25 C22.14 21.76, 30.54 15.89, 41.25 8.75 M41.25 8.75 C55.84 -1.48, 55.97 0.29, 68.75 8.75 M41.25 8.75 C57.04 0.73, 55.98 1.46, 68.75 8.75" stroke="#1e1e1e" stroke-width="2" fill="none"></path></g><g transform="translate(58.38126920774499 83.91931174779313) rotate(0 142.74392700195312 10)"><text x="0" y="14.016" font-family="Virgil, Segoe UI Emoji" font-size="16px" fill="#1971c2" text-anchor="start" style="white-space: pre;" direction="ltr" dominant-baseline="alphabetic">Diagrama entidade e relacionamento</text></g><g stroke-linecap="round" transform="translate(10 10) rotate(0 504.61422535255133 602.276462756895)"><path d="M32 0 C249.28 -1.16, 466.35 -1.52, 977.23 0 M32 0 C334.16 -1.19, 636.79 -1.08, 977.23 0 M977.23 0 C999.67 -1.93, 1010.32 12.48, 1009.23 32 M977.23 0 C997.14 -0.93, 1010.7 12.71, 1009.23 32 M1009.23 32 C1008.51 364.44, 1009.11 695.51, 1009.23 1172.55 M1009.23 32 C1007.81 339.07, 1008.08 645.47, 1009.23 1172.55 M1009.23 1172.55 C1010.25 1193.55, 997.99 1204.95, 977.23 1204.55 M1009.23 1172.55 C1009.94 1193.45, 998.18 1205.22, 977.23 1204.55 M977.23 1204.55 C788.74 1205.76, 598.02 1205.03, 32 1204.55 M977.23 1204.55 C775.11 1206.83, 573.5 1206.93, 32 1204.55 M32 1204.55 C9.53 1203.62, 1.29 1193.18, 0 1172.55 M32 1204.55 C10.66 1205.71, 1.62 1192.37, 0 1172.55 M0 1172.55 C-2.68 909.23, -2.7 644.34, 0 32 M0 1172.55 C-2.21 823.91, -2.6 474.27, 0 32 M0 32 C1.03 11.97, 11.13 0.99, 32 0 M0 32 C2.15 11.23, 11.21 -1.08, 32 0" stroke="#2f9e44" stroke-width="2" fill="none"></path></g><g stroke-linecap="round"><g transform="translate(306.1242202518701 255.04733427719827) rotate(0 52.07938046123178 0.41008334628662624)"><path d="M-1.13 -0.01 C16.53 0.36, 87.82 1.21, 105.34 1.16 M0.48 -1.06 C18.13 -0.97, 87.91 -1.02, 105.01 -0.78" stroke="#1e1e1e" stroke-width="2" fill="none"></path></g></g><mask></mask><g stroke-linecap="round"><g transform="translate(513.6216692627047 255.04733427719827) rotate(0 41.827531450268 0.41008334628662624)"><path d="M1.18 0.34 C15.28 0.3, 69.91 -0.26, 83.47 -0.31 M0.34 -0.52 C14.37 -0.46, 68.34 0.39, 82.43 0.64" stroke="#1e1e1e" stroke-width="2" fill="none"></path></g></g><mask></mask><g transform="translate(438.16802299861905 240.89979515653232) rotate(0 28.90398406982422 10)"><text x="0" y="14.016" font-family="Virgil, Segoe UI Emoji" font-size="16px" fill="#1e1e1e" text-anchor="start" style="white-space: pre;" direction="ltr" dominant-baseline="alphabetic">Realiza</text></g><g stroke-linecap="round" transform="translate(148.58510231614088 413.431020405225) rotate(0 57.205102873367196 56.407939732541934)"><path d="M28.2 0 C47.59 1.64, 63.93 2.17, 86.21 0 M28.2 0 C43.98 0.07, 61.7 -0.88, 86.21 0 M86.21 0 C103.33 -2, 114.57 8.79, 114.41 28.2 M86.21 0 C104.57 0.29, 112.33 7.12, 114.41 28.2 M114.41 28.2 C113.28 40.31, 112.61 56.24, 114.41 84.61 M114.41 28.2 C113.94 41.3, 114.77 55.07, 114.41 84.61 M114.41 84.61 C115.69 105.16, 103.66 114.03, 86.21 112.82 M114.41 84.61 C114.39 103.14, 104.21 110.75, 86.21 112.82 M86.21 112.82 C70.71 113.32, 59.24 113.18, 28.2 112.82 M86.21 112.82 C68.96 113.19, 51.94 112.08, 28.2 112.82 M28.2 112.82 C8.92 114.14, -0.73 102.65, 0 84.61 M28.2 112.82 C10.62 112.86, -1.09 104.97, 0 84.61 M0 84.61 C1.24 68.55, -1.86 51.38, 0 28.2 M0 84.61 C0.97 68.2, 0.02 53.33, 0 28.2 M0 28.2 C-0.99 10.54, 8.7 1.17, 28.2 0 M0 28.2 C0.79 11.61, 8.22 1.44, 28.2 0" stroke="#1e1e1e" stroke-width="2" fill="none"></path></g><g transform="translate(163.23022288970338 459.838960137767) rotate(0 42.55998229980469 10)"><text x="42.55998229980469" y="14.016" font-family="Virgil, Segoe UI Emoji" font-size="16px" fill="#1e1e1e" text-anchor="middle" style="white-space: pre;" direction="ltr" dominant-baseline="alphabetic">Solicitação</text></g><g stroke-linecap="round" transform="translate(642.730233653896 427.9794020350896) rotate(0 57.205102873367196 56.407939732541934)"><path d="M28.2 0 C52 0.18, 72.26 1.6, 86.21 0 M28.2 0 C41.9 -0.01, 54.48 0, 86.21 0 M86.21 0 C105.2 0.18, 115.29 9.75, 114.41 28.2 M86.21 0 C105.38 -0.3, 114.01 9.22, 114.41 28.2 M114.41 28.2 C114.84 49.66, 115.98 68.57, 114.41 84.61 M114.41 28.2 C113.64 46.2, 114.69 62.88, 114.41 84.61 M114.41 84.61 C115.35 104.61, 104.73 112.24, 86.21 112.82 M114.41 84.61 C113.23 103.05, 105.29 113.89, 86.21 112.82 M86.21 112.82 C65.11 113.98, 46.71 111.48, 28.2 112.82 M86.21 112.82 C70.72 113.26, 54.72 113.68, 28.2 112.82 M28.2 112.82 C7.73 112.43, 0.34 103.59, 0 84.61 M28.2 112.82 C8.15 114.1, -0.49 103.84, 0 84.61 M0 84.61 C-0.66 68.43, 1.13 47.58, 0 28.2 M0 84.61 C-0.36 63.07, 0.34 42.02, 0 28.2 M0 28.2 C-0.08 9.71, 7.9 -0.12, 28.2 0 M0 28.2 C1.5 8.95, 8.74 -0.26, 28.2 0" stroke="#1e1e1e" stroke-width="2" fill="none"></path></g><g transform="translate(664.3833650917163 474.3873417676316) rotate(0 35.551971435546875 10)"><text x="35.551971435546875" y="14.016" font-family="Virgil, Segoe UI Emoji" font-size="16px" fill="#1e1e1e" text-anchor="middle" style="white-space: pre;" direction="ltr" dominant-baseline="alphabetic">Produtos</text></g><g transform="translate(270.9192144382843 469.66764251496215) rotate(0 15.751991271972656 10)"><text x="0" y="14.016" font-family="Virgil, Segoe UI Emoji" font-size="16px" fill="#1e1e1e" text-anchor="start" style="white-space: pre;" direction="ltr" dominant-baseline="alphabetic">(0,1)</text></g><g transform="translate(597.0589604209313 476.5560196145875) rotate(0 15.399986267089844 10)"><text x="0" y="14.016" font-family="Virgil, Segoe UI Emoji" font-size="16px" fill="#1e1e1e" text-anchor="start" style="white-space: pre;" direction="ltr" dominant-baseline="alphabetic">(1,N)</text></g><g transform="translate(157.45049829253088 557.2654611839606) rotate(0 42.35999298095703 10)"><text x="0" y="14.016" font-family="Virgil, Segoe UI Emoji" font-size="16px" fill="#e03131" text-anchor="start" style="white-space: pre;" direction="ltr" dominant-baseline="alphabetic">oneToMany</text></g><g transform="translate(662.8707610733964 555.5302635044903) rotate(0 41.70398712158203 10)"><text x="0" y="14.016" font-family="Virgil, Segoe UI Emoji" font-size="16px" fill="#e03131" text-anchor="start" style="white-space: pre;" direction="ltr" dominant-baseline="alphabetic">mqnyToOne</text></g><g stroke-linecap="round" transform="translate(406.2543195514191 445.09057776703946) rotate(0 54.92399589198914 34.3274974324932)"><path d="M68.75 8.75 C75.41 15.47, 85.15 19.99, 96.1 26.25 M68.75 8.75 C77.42 15.03, 86.38 19.91, 96.1 26.25 M96.1 26.25 C108.68 35.5, 111.5 34.71, 96.1 43.75 M96.1 26.25 C108.04 34.35, 107.85 35.92, 96.1 43.75 M96.1 43.75 C90.41 46.37, 79.89 50.58, 68.75 59.9 M96.1 43.75 C86.09 50.64, 76.74 55.89, 68.75 59.9 M68.75 59.9 C53.69 70.42, 54.98 69.62, 41.25 59.9 M68.75 59.9 C56.12 67.95, 56.95 67.29, 41.25 59.9 M41.25 59.9 C30.77 54.34, 22.17 49.3, 13.75 43.75 M41.25 59.9 C33.98 55.41, 29.18 52.02, 13.75 43.75 M13.75 43.75 C0.04 35.31, 1.62 36.29, 13.75 26.25 M13.75 43.75 C-2.26 36.53, -0.36 33.2, 13.75 26.25 M13.75 26.25 C24.5 18.88, 31.56 12.97, 41.25 8.75 M13.75 26.25 C23.28 21.32, 31.56 15.28, 41.25 8.75 M41.25 8.75 C53.68 -1.78, 55.74 1.24, 68.75 8.75 M41.25 8.75 C57.28 1.7, 55.72 -1.45, 68.75 8.75" stroke="#1e1e1e" stroke-width="2" fill="none"></path></g><g stroke-linecap="round"><g transform="translate(305.3040848454571 480.5880125184008) rotate(0 52.07938046123178 0.41008334628662624)"><path d="M0.94 0.18 C18.17 0.42, 86.98 1.94, 104.18 1.96 M-0.03 -0.76 C16.98 -0.89, 86.02 0.09, 103.25 0.43" stroke="#1e1e1e" stroke-width="2" fill="none"></path></g></g><mask></mask><g stroke-linecap="round"><g transform="translate(512.8015338562918 480.5880125184008) rotate(0 41.827531450268 0.41008334628662624)"><path d="M-1.17 -0.42 C12.8 -0.37, 68.46 0.33, 82.75 0.63 M0.42 -1.69 C14.86 -1.47, 71 1.9, 84.98 2.06" stroke="#1e1e1e" stroke-width="2" fill="none"></path></g></g><mask></mask><g transform="translate(429.146408383435 468.0808067828815) rotate(0 26.69598388671875 10)"><text x="0" y="14.016" font-family="Virgil, Segoe UI Emoji" font-size="16px" fill="#1e1e1e" text-anchor="start" style="white-space: pre;" direction="ltr" dominant-baseline="alphabetic">contém</text></g></svg>